<svg width="453" height="514" viewBox="0 0 453 514" fill="none" xmlns="http://www.w3.org/2000/svg">
<g clip-path="url(#clip0_33_2138)">
<path d="M103.479 416.526C104.516 417.274 105.7 418.023 106.736 418.771C107.921 419.519 108.957 420.267 110.141 420.865C111.177 421.464 112.066 422.062 113.102 422.661C113.25 422.81 113.398 422.81 113.546 422.96C116.951 425.054 120.504 426.999 124.057 428.795C125.093 429.393 126.277 429.992 127.314 430.441C127.314 430.441 127.462 430.59 127.61 430.59L131.163 432.386C133.531 433.582 136.048 434.63 138.417 435.677C139.601 436.276 140.933 436.724 142.118 437.173C143.302 437.622 144.634 438.221 145.819 438.669C147.003 439.118 148.335 439.717 149.52 440.165H149.668C150.852 440.614 152.184 441.063 153.369 441.512C156.033 442.41 158.846 443.307 161.511 444.205C162.399 444.504 163.435 444.804 164.324 445.103C167.136 446 169.949 446.749 172.762 447.347C173.798 447.646 174.834 447.796 176.019 448.095C178.683 448.693 181.496 449.292 184.161 449.89C184.753 450.04 185.197 450.04 185.789 450.19C186.677 450.339 187.714 450.489 188.602 450.638C189.934 450.788 191.119 451.087 192.451 451.237C193.043 451.387 193.635 451.387 194.227 451.536C194.968 451.686 195.856 451.835 196.744 451.835C199.113 452.135 201.629 452.434 203.998 452.733C204.738 452.883 205.626 452.883 206.367 453.032H206.515C207.551 453.182 208.587 453.182 209.624 453.332C210.66 453.481 211.696 453.481 212.732 453.481C213.325 453.481 214.065 453.631 214.657 453.631C215.841 453.631 216.877 453.78 217.914 453.78C219.394 453.78 220.726 453.93 222.207 453.93H229.609C292.081 453.032 348.188 426.251 388.307 383.761C388.307 383.761 388.307 383.611 388.455 383.611C392.896 379.572 389.047 358.027 371.134 344.412C348.632 327.207 294.746 316.434 294.746 316.434C294.746 316.434 273.873 312.993 196.448 329.301C151.148 338.877 116.655 352.791 97.4098 390.494C93.4128 398.273 89.4157 410.243 103.479 416.526Z" fill="white"/>
<path d="M196.004 327.655C167.58 333.49 137.232 339.774 113.842 358.775C105.996 365.208 100.815 374.634 96.5215 383.761C94.449 388.249 92.3765 392.887 90.748 397.824C89.8598 401.116 88.5274 404.856 89.2676 408.746C89.4157 409.794 90.3039 411.14 91.0441 411.888C94.449 415.329 98.15 417.424 101.851 420.117C123.613 435.378 148.631 446.15 174.538 451.835C232.274 464.552 294.746 454.678 345.524 424.007C362.4 413.684 377.944 401.116 391.268 386.304C392.748 384.509 392.748 381.516 392.748 379.571C392.6 375.083 391.416 370.744 389.935 366.705C386.382 357.429 381.793 348.152 373.947 341.719C368.322 337.829 362.252 334.538 356.034 331.845C336.493 323.466 315.916 317.631 294.746 315.237C292.97 315.088 292.674 317.631 294.45 317.93C314.731 322.12 334.865 328.403 353.666 336.931C360.475 340.373 367.729 343.365 373.207 348.751C378.388 354.436 382.089 361.468 385.05 368.65C386.975 372.988 388.307 379.871 387.715 383.312C378.388 394.533 367.433 404.407 355.59 412.935C290.749 458.717 192.303 461.71 123.317 423.558C117.099 420.117 111.029 416.227 105.256 412.187C102.443 410.242 99.4823 408.597 97.2617 406.352C97.1137 406.203 97.2617 406.352 97.2617 406.502C97.2617 406.652 97.4098 406.801 97.4098 406.801C97.2617 405.006 97.8539 402.612 98.5941 400.218C101.259 391.541 105.552 382.414 110.141 374.485C117.395 362.665 129.682 355.184 142.118 349.2C150.704 345.16 159.734 342.018 168.913 339.026C178.091 336.034 187.418 333.49 196.744 331.246C199.113 330.648 198.373 327.206 196.004 327.655Z" fill="black"/>
</g>
<path d="M83.198 437.772C86.0108 415.629 98.4461 378.375 105.996 368.35C114.286 357.429 117.691 353.987 145.375 344.562C146.855 337.081 152.332 318.23 158.846 310.3C168.765 295.189 195.856 291.748 203.998 293.543C203.998 293.543 247.818 277.983 298.299 277.983C314.287 281.574 332.792 288.905 342.859 304.316C349.669 314.489 341.971 317.781 345.375 327.057C346.264 329.451 366.989 341.42 375.427 348.601C379.276 351.743 383.57 359.673 386.53 369.996C392.452 391.092 386.086 420.267 393.488 445.701C407.7 494.775 436.568 509.437 436.568 509.437H54.0343C54.3304 509.287 77.1284 484.451 83.198 437.772Z" fill="white"/>
<path d="M85.4186 438.071C88.3794 418.471 94.301 399.021 101.851 380.768C105.552 371.941 111.177 363.413 119.023 358.177C123.021 355.633 127.462 353.688 132.051 351.743C136.64 349.948 141.377 348.302 145.967 346.656C146.707 346.357 147.299 345.759 147.447 345.011C148.039 342.018 148.779 339.176 149.668 336.183C153.517 324.065 157.662 310.599 168.913 303.567C177.499 298.331 187.714 295.787 197.632 295.339C199.557 295.339 201.629 295.339 203.406 295.638H203.998C204.146 295.638 204.442 295.638 204.59 295.488C211.696 292.047 219.542 289.952 227.24 287.858C250.334 282.472 274.465 280.228 298.151 280.078C312.659 283.519 332.94 291.598 341.823 306.56C343.303 308.954 344.043 311.347 343.747 314.04C343.451 317.033 342.415 320.324 343.155 323.466C343.451 324.813 343.747 326.309 344.339 327.506C345.524 329.151 347.448 330.199 348.928 331.246C356.626 336.333 364.473 340.821 371.875 346.058C374.391 347.853 376.76 349.499 378.536 352.042C383.718 359.523 386.826 368.5 388.159 377.477C390.527 395.73 388.159 414.282 390.527 432.535C393.192 450.788 400.15 468.442 409.921 484.002C416.73 494.475 425.021 504.2 435.531 510.933L436.568 506.744H54.0343L55.6628 510.484C60.1039 505.397 63.6569 499.861 66.9137 494.026C76.9804 476.97 82.9019 457.67 85.4186 438.071ZM80.9774 437.472C79.349 450.189 76.2402 462.757 71.5029 474.726C66.7657 486.546 60.8441 498.066 52.5539 507.791C51.3696 509.137 52.4059 511.681 54.1823 511.531H436.716C437.9 511.531 438.936 510.484 438.936 509.287C438.936 508.389 438.492 507.641 437.752 507.342C435.383 505.996 433.015 504.051 430.794 502.106C411.401 484.451 399.262 458.269 395.265 432.236C391.86 407.849 398.225 381.516 387.419 358.326C384.902 352.94 381.793 347.255 376.76 343.814C367.581 336.931 357.515 331.845 348.484 325.112C348.336 325.112 348.336 324.962 348.336 324.962C348.484 325.112 348.632 325.411 348.632 325.561C347.744 323.466 347.448 321.671 347.744 319.277C348.188 316.285 348.928 312.245 347.892 309.103C347.448 307.308 346.56 305.662 345.672 304.315C335.013 288.157 316.212 280.976 298.299 276.936C293.266 277.086 288.084 276.188 283.051 276.188C276.093 276.188 268.987 277.235 262.029 278.133C242.044 281.275 222.799 286.661 203.11 291L204.442 290.85C199.853 289.952 195.56 290.401 191.119 291C162.695 295.339 153.073 307.906 145.375 334.687C144.486 337.679 143.746 340.672 143.006 343.814L144.486 342.018C130.275 347.105 114.286 351.743 105.256 365.059C101.999 369.098 99.6304 373.886 97.5578 378.674C90.0078 397.824 84.0863 417.125 80.9774 437.472Z" fill="black"/>
<path d="M316.508 339.325C305.553 362.964 288.528 383.013 268.247 398.872C267.507 399.47 268.247 400.667 269.135 400.218C287.196 391.541 302.444 376.729 311.474 358.775C314.435 352.791 316.952 346.357 317.84 339.625C318.136 338.877 316.952 338.577 316.508 339.325ZM143.154 344.263C142.71 369.248 152.776 394.832 172.022 410.991C172.466 411.44 173.058 411.29 173.502 410.841C173.946 410.392 173.798 409.794 173.354 409.345C169.061 405.156 164.768 400.817 161.511 395.73C154.701 385.855 150.556 374.186 148.631 362.366C147.743 356.531 147.151 350.247 147.595 344.412C147.743 341.57 143.302 341.27 143.154 344.263ZM230.349 403.66C233.754 415.778 236.567 428.944 234.938 441.512C234.494 444.355 238.787 445.103 239.379 442.11C240.12 435.228 239.231 428.496 238.047 421.913C236.715 415.329 235.086 409.046 232.866 402.762C232.273 401.266 229.757 402.014 230.349 403.66ZM183.273 401.415C178.387 412.038 174.982 423.109 172.318 434.33C172.022 435.527 172.762 436.724 173.946 437.024C175.13 437.323 176.315 436.575 176.611 435.378C178.091 426.999 180.016 418.621 182.68 410.392C183.569 407.699 184.457 405.006 185.493 402.313C186.085 400.966 184.013 399.919 183.273 401.415Z" fill="black"/>
<path d="M342.267 326.459C336.789 356.681 315.768 382.265 290.453 398.573C281.867 404.108 272.688 408.896 263.214 412.786C262.622 413.085 262.325 413.684 262.622 414.282C262.77 414.881 263.51 415.18 263.954 414.881C273.725 411.29 283.199 406.801 292.081 401.415C310.142 390.643 325.982 375.682 336.641 357.429C342.119 348.003 346.412 338.129 348.484 327.356C348.78 325.561 347.596 323.915 345.82 323.616C344.191 323.167 342.415 324.514 342.267 326.459ZM239.231 444.804C243.376 444.355 246.337 440.465 245.449 436.276L243.821 428.346C243.228 425.204 240.268 422.96 237.159 423.409C234.05 423.708 231.533 426.401 231.533 429.693V437.772C231.385 441.961 234.938 445.252 239.231 444.804ZM170.985 439.268C174.982 440.764 179.275 438.37 180.312 434.181L182.236 426.251C182.976 423.109 181.348 419.968 178.239 418.771C175.278 417.723 171.874 419.07 170.541 421.913L166.988 429.244C165.212 433.283 166.988 437.921 170.985 439.268Z" fill="black"/>
<path d="M363.88 509.287C363.88 509.287 365.213 475.923 369.654 466.946M102.591 434.779C102.591 434.779 94.301 481.758 97.5578 509.287M126.425 479.963C126.425 479.963 148.335 483.254 167.58 482.357" stroke="black" stroke-width="5.126" stroke-miterlimit="10" stroke-linecap="round" stroke-linejoin="round"/>
<path d="M295.93 321.072C298.003 315.088 298.891 308.954 298.447 302.67C298.447 302.071 298.003 301.772 297.411 301.772C296.967 301.772 296.523 302.221 296.523 302.67C296.078 308.355 294.45 314.19 291.785 319.127C290.453 322.12 294.894 324.065 295.93 321.072ZM195.856 329.002C200.001 319.576 210.216 314.788 219.246 311.497C224.872 309.702 231.089 308.355 237.011 307.457C251.371 305.213 271.652 301.772 286.012 300.276C286.16 300.276 286.16 299.977 286.012 299.977C281.867 299.528 277.722 299.528 273.576 299.528C261.141 299.827 248.706 301.174 236.419 303.119C224.131 305.064 210.956 308.804 201.629 317.781C198.669 320.923 196.004 324.513 195.264 328.852C195.116 329.301 195.708 329.451 195.856 329.002Z" fill="black"/>
<path d="M182.088 367.453C185.197 382.863 205.33 392.139 239.231 378.225C274.465 363.862 289.713 329.6 293.562 319.426C272.688 279.928 287.196 252.549 287.196 252.549C239.083 248.36 197.04 305.213 197.04 305.213L190.526 333.34C189.934 335.734 188.75 337.829 186.974 339.325C183.865 344.861 180.164 357.578 182.088 367.453Z" fill="white"/>
<path d="M294.302 319.875C291.489 315.536 289.713 310.45 288.528 305.512C286.308 295.189 285.568 284.716 285.42 274.243V270.353C285.864 266.463 287.196 262.423 288.676 258.833C290.601 254.045 283.643 251.053 281.423 255.84C281.126 256.439 281.126 257.486 281.126 258.084C280.682 278.432 279.794 304.615 292.526 321.521C293.414 322.419 295.19 321.072 294.302 319.875ZM195.412 304.914C193.191 306.26 192.451 308.056 192.155 309.851C191.267 313.442 191.563 317.332 190.675 321.072C189.934 324.663 187.714 328.104 187.122 331.844C186.381 335.734 184.161 343.963 183.273 348.003C182.976 348.9 183.569 349.948 184.605 350.097C185.197 350.247 185.641 350.097 186.085 349.798C188.01 348.152 188.898 346.507 190.082 344.412C192.007 340.821 193.339 337.53 194.524 333.49C195.56 329.899 195.116 326.009 196.004 322.269C196.744 318.678 198.817 315.237 199.557 311.497C200.001 309.701 200.149 307.756 198.817 305.512C197.928 304.615 196.448 304.315 195.412 304.914Z" fill="black"/>
<path d="M184.753 344.412C213.028 342.916 236.123 333.939 258.625 293.394C239.675 310.3 217.322 316.733 193.783 319.726L190.675 333.49C190.082 335.884 186.529 342.916 184.753 344.412Z" fill="black"/>
<path d="M185.936 338.876C180.902 348.452 177.942 360.421 181.05 371.044C183.419 378.524 190.229 384.06 197.631 386.155C214.803 390.793 234.641 383.462 249.889 375.233C268.69 364.61 282.605 346.806 291.488 327.356C292.08 325.86 290.007 324.663 289.119 326.159C286.01 332.443 282.457 338.577 278.46 344.113C274.463 349.798 269.874 355.035 264.693 359.673C249.593 373.437 229.163 381.965 208.734 381.965C187.712 381.367 179.718 370.146 184.603 349.499C185.344 346.208 186.528 342.766 188.156 339.924C189.045 338.727 186.824 337.38 185.936 338.876Z" fill="black"/>
<path d="M128.646 159.19C125.981 171.757 128.054 180.136 129.238 214.846C129.83 231.304 132.347 237.438 133.087 255.841C133.383 264.219 139.453 275.739 141.674 282.472C144.634 291.598 147.595 303.867 154.405 312.694C157.958 317.182 162.251 319.876 169.357 321.072C171.725 321.521 174.094 317.931 176.019 318.679C199.261 329.002 224.724 324.214 247.818 303.867C257.884 294.89 272.984 273.196 279.35 258.234C280.682 255.093 286.604 261.676 295.042 252.25C306.737 239.383 320.801 213.5 313.843 167.718C302.592 93.509 244.413 84.8314 201.333 93.0602C157.958 101.289 135.752 126.125 128.646 159.19Z" fill="white"/>
<path d="M287.64 265.416C291.045 259.73 295.486 254.644 299.483 249.257C305.405 241.029 309.846 231.603 312.807 221.878C328.055 173.702 313.547 108.321 260.253 92.7609C240.712 86.7763 219.986 87.2251 200.149 90.9655C173.502 95.6035 146.855 109.368 133.827 134.354C129.09 143.63 125.537 153.654 124.501 163.977C123.909 170.86 125.093 177.742 125.833 184.474C126.722 191.207 126.87 197.79 127.166 204.523C127.906 214.547 129.238 224.421 129.682 234.446C130.275 241.178 129.83 247.911 130.867 254.644C133.087 268.109 138.121 280.676 142.266 293.394C145.523 303.119 148.779 315.088 158.698 320.025C165.804 324.364 174.39 324.513 182.236 323.915C183.421 323.915 184.309 323.616 185.197 323.915C204.294 327.655 222.059 324.364 238.047 312.694C245.745 306.56 254.924 300.725 260.697 292.646C261.289 291.748 260.105 290.701 259.365 291.449C254.775 296.087 249.298 299.678 243.673 303.119C237.899 306.709 232.718 310.45 226.944 312.993C214.657 318.978 200.889 319.875 187.566 317.482C186.825 317.332 185.345 317.033 184.605 317.182C179.72 317.482 174.982 317.93 170.245 317.182C164.472 316.285 158.846 313.741 155.589 308.954C152.184 304.166 150.408 297.583 148.039 291.299C143.45 278.881 137.973 266.613 135.16 253.746C133.976 248.21 133.679 239.832 133.235 233.997C132.199 220.681 129.83 207.515 129.83 194.05C129.682 187.317 129.534 180.584 129.682 174.001C131.459 140.488 150.556 111.762 182.088 99.9424C217.174 86.6267 263.954 87.5244 289.713 118.495C302.148 133.306 307.922 152.756 310.586 171.757C315.62 201.979 313.695 231.902 289.861 253.896L282.903 261.227C280.238 265.117 285.272 269.007 287.64 265.416Z" fill="black"/>
<path d="M270.172 217.839C270.172 217.839 274.761 195.397 296.375 198.09C315.027 200.483 321.541 245.667 279.202 258.235" fill="white"/>
<path d="M281.126 238.635C284.531 236.69 286.9 233.399 287.048 229.359C286.9 226.367 286.456 222.926 287.196 219.933C287.64 217.091 290.601 216.342 292.822 216.492C295.19 216.941 296.671 219.933 297.115 222.327C297.115 222.477 297.263 222.926 297.263 223.075C297.411 223.823 298.595 223.823 298.891 223.075C300.816 217.24 296.523 210.807 290.305 211.555C281.571 212.153 280.386 221.429 282.015 228.461C282.903 231.454 281.719 234.147 280.09 236.69L279.794 237.139C279.054 238.037 280.238 239.233 281.126 238.635ZM162.695 201.98C160.475 212.602 156.329 222.477 151.148 231.753C146.559 243.123 158.402 253.896 168.913 253.447C170.097 253.447 170.245 251.801 169.209 251.502C162.547 249.407 156.477 244.919 155.441 238.037C154.997 235.942 155.589 234.147 156.625 232.351C161.511 223.075 164.472 212.453 163.731 201.98C163.731 201.231 162.695 201.231 162.695 201.98Z" fill="black"/>
<path d="M270.912 217.988C274.317 209.161 281.719 200.782 291.637 200.932C292.525 200.782 294.006 201.082 294.894 201.082C297.411 201.231 299.483 202.129 301.408 203.924C310.882 213.5 309.254 230.406 301.556 241.029C298.891 244.769 295.486 248.061 291.637 250.754C287.788 253.447 283.495 255.541 278.906 257.337C277.87 257.636 278.314 259.282 279.35 259.132C289.269 257.037 298.743 252.1 305.257 243.871C315.324 231.603 317.396 211.106 305.405 199.137C302.74 196.743 299.039 194.947 295.338 194.947C294.154 194.947 292.377 194.648 291.193 194.947C284.975 195.247 279.054 198.389 275.205 203.326C271.8 207.515 269.875 212.602 269.283 217.689C269.283 218.587 270.616 218.886 270.912 217.988ZM188.01 318.379C181.2 316.883 177.203 310.15 177.795 303.268C177.943 302.221 176.315 301.922 176.167 302.969C173.65 311.497 178.239 320.773 186.381 324.065C190.674 325.71 192.451 319.127 188.01 318.379Z" fill="black"/>
<path d="M116.655 136.299C106.588 127.471 91.7843 114.156 107.032 95.6035C122.28 77.0513 150.408 84.2328 150.408 84.2328C150.408 84.2328 144.486 67.1768 160.919 61.0426C180.756 53.7115 237.011 75.8544 237.011 75.8544C241.156 75.7048 245.153 75.5552 248.854 75.5552C297.411 74.5079 311.475 105.478 312.067 133.306C312.067 133.306 328.499 138.842 332.644 165.324C333.976 173.852 335.309 184.774 332.052 197.94C323.318 233.847 299.779 258.833 284.827 271.55C279.202 267.361 289.121 261.526 288.38 254.643C320.505 238.784 313.547 200.333 296.375 198.089C283.199 196.444 276.241 204.223 272.984 210.507C271.652 212.303 289.417 112.211 186.974 144.976C166.692 151.41 145.819 157.095 131.607 146.772C129.978 149.913 128.942 153.654 128.646 159.19C128.646 159.19 103.924 149.465 107.625 139.291C108.809 135.85 116.655 136.299 116.655 136.299Z" fill="black"/>
<path d="M210.956 206.617V206.916L211.104 211.106C211.252 214.696 214.213 217.389 217.766 217.24C221.319 217.09 223.983 213.948 223.687 210.507L223.539 206.318C223.539 205.57 223.243 204.672 222.947 204.074L211.104 204.672C211.104 205.271 210.956 205.869 210.956 206.617ZM149.075 209.909L149.223 213.799C149.372 217.09 152.184 219.634 155.441 219.484C158.698 219.334 161.215 216.492 161.067 213.2L160.919 209.31C160.919 208.562 160.771 207.814 160.474 207.216L149.372 207.665C149.223 208.413 149.075 209.161 149.075 209.909ZM196.152 186.12C192.895 186.569 190.378 183.128 191.563 179.836C192.155 178.041 193.191 176.395 194.82 175.348C199.853 172.206 218.654 171.907 228.573 179.088C237.455 185.671 210.956 184.025 196.152 186.12ZM155.145 187.766C157.81 187.766 159.438 184.325 158.106 181.482C157.366 179.986 156.329 178.639 154.849 177.891C150.26 175.647 137.973 176.994 132.495 184.624C127.61 191.357 142.858 187.616 155.145 187.766Z" fill="black"/>
<path d="M201.483 206.617L225.909 206.168C228.87 206.019 228.722 201.53 225.761 201.68L201.335 203.475C199.262 203.625 199.41 206.617 201.483 206.617ZM142.858 209.161L160.919 209.46C163.879 209.46 164.027 205.121 161.067 204.971H160.771L142.71 206.916C141.377 207.066 141.525 209.011 142.858 209.161Z" fill="black"/>
<path d="M173.946 268.408C183.421 277.535 201.333 270.204 206.071 259.132C206.663 257.786 205.182 256.589 203.998 257.187C201.481 258.534 199.261 259.88 196.892 260.927C190.082 264.069 182.976 266.613 175.426 265.865C173.946 265.565 172.91 267.361 173.946 268.408Z" fill="black"/>
<defs>
<clipPath id="clip0_33_2138">
<rect width="453" height="457.82" fill="white" transform="matrix(-1 0 0 1 453 0)"/>
</clipPath>
</defs>
</svg>
