<svg xmlns="http://www.w3.org/2000/svg" id="Layer_1" data-name="Layer 1" viewBox="0 0 47.644 74.5"><defs><style>.cls-1{fill:none}</style></defs><path d="M1.5 6.283h44.644v56.708H1.5zM23.822 67.464a1.162 1.162 0 1 0 1.161 1.161 1.163 1.163 0 0 0-1.161-1.161ZM46.07 4.783A4.004 4.004 0 0 0 42.14 1.5H5.503a4.003 4.003 0 0 0-3.93 3.283Z" class="cls-1"/><path d="M1.5 64.491v4.506A4.007 4.007 0 0 0 5.502 73h36.639a4.008 4.008 0 0 0 4.003-4.003v-4.506Zm22.322 6.296a2.162 2.162 0 1 1 2.161-2.162 2.164 2.164 0 0 1-2.161 2.162Z" class="cls-1"/><path d="M42.14 0H5.503A5.509 5.509 0 0 0 0 5.503v63.494A5.509 5.509 0 0 0 5.502 74.5h36.639a5.51 5.51 0 0 0 5.503-5.503V5.503A5.51 5.51 0 0 0 42.14 0ZM5.503 1.5h36.639a4.004 4.004 0 0 1 3.93 3.283H1.573A4.003 4.003 0 0 1 5.503 1.5Zm40.642 4.783v56.708H1.5V6.283ZM42.14 73H5.502A4.007 4.007 0 0 1 1.5 68.997v-4.506h44.644v4.506A4.008 4.008 0 0 1 42.14 73Z"/><path d="M23.822 66.464a2.162 2.162 0 1 0 2.161 2.161 2.164 2.164 0 0 0-2.161-2.161Zm0 3.323a1.162 1.162 0 1 1 1.161-1.162 1.163 1.163 0 0 1-1.161 1.162Z"/></svg>