<svg xmlns="http://www.w3.org/2000/svg" xml:space="preserve" width="32" height="32" style="shape-rendering:geometricPrecision;text-rendering:geometricPrecision;image-rendering:optimizeQuality;fill-rule:evenodd;clip-rule:evenodd" viewBox="0 0 846.66 846.66"><path stroke="white" stroke-width="20px" d="M648.17 700.54c59.25 0 107.29-48.03 107.29-107.28 0-59.17-47.97-107.29-107.29-107.29-59.25 0-107.28 48.04-107.28 107.29 0 59.54 48.32 107.28 107.28 107.28zm111.21-8.74 71.88 84.22c17.59 20.56-13.71 47.34-31.3 26.78l-71.91-84.24c-23.06 14.74-50.48 23.28-79.88 23.28-31.43 0-60.59-9.76-84.6-26.42H30.85c-11.4 0-20.65-9.25-20.65-20.65V57.13c0-11.4 9.25-20.65 20.65-20.65H741.6c11.4 0 20.65 9.25 20.65 20.65v440.92c21.54 25.78 34.51 58.98 34.51 95.21 0 37.8-14.13 72.32-37.38 98.54zm-38.43-228.11V219.93H51.51v454.19H523.5c-15.12-23.27-23.91-51.04-23.91-80.86 0-82.06 66.52-148.59 148.58-148.59 26.44 0 51.27 6.91 72.78 19.02zM448.28 340.15l-63.48.55c-27.06.21-27.37-40.93-.32-41.14l116.35-1.01c12.41-.95 22.82 9.21 22.19 21.61l2.01 121.49c.42 27.06-40.72 27.7-41.14.64l-1.29-77.55-130.87 117.94c-6.73 6.06-16.93 7.15-24.92 2.02l-107.65-69.45-62.32 109.05c-13.46 23.53-49.28 3.04-35.82-20.49l73.11-127.93c6.05-10.59 20-13.63 29.9-6.54l111.82 72.14 112.43-101.33zM276.57 148.86c-27.16 0-27.16-41.31 0-41.31h86.3c27.17 0 27.17 41.31 0 41.31h-86.3zm-160.43 0c-27.16 0-27.16-41.31 0-41.31h86.31c27.16 0 27.16 41.31 0 41.31h-86.31zm604.81 29.77V77.78H51.51v100.85h669.44z" style="fill:#000;fill-rule:nonzero"/></svg>