<svg id="visual" viewBox="0 0 3000 1000" width="3000" height="1000" xmlns="http://www.w3.org/2000/svg" xmlns:xlink="http://www.w3.org/1999/xlink" version="1.1"><path d="M0 180L22.7 213C45.3 246 90.7 312 136.2 322.3C181.7 332.7 227.3 287.3 272.8 242.5C318.3 197.7 363.7 153.3 409 130.8C454.3 108.3 499.7 107.7 545.2 106.5C590.7 105.3 636.3 103.7 681.8 145.7C727.3 187.7 772.7 273.3 818.2 277.8C863.7 282.3 909.3 205.7 954.8 208.8C1000.3 212 1045.7 295 1091 298.2C1136.3 301.3 1181.7 224.7 1227.2 206.7C1272.7 188.7 1318.3 229.3 1363.8 224.3C1409.3 219.3 1454.7 168.7 1500 143.2C1545.3 117.7 1590.7 117.3 1636.2 137.3C1681.7 157.3 1727.3 197.7 1772.8 212C1818.3 226.3 1863.7 214.7 1909 198.8C1954.3 183 1999.7 163 2045.2 173.5C2090.7 184 2136.3 225 2181.8 237.5C2227.3 250 2272.7 234 2318.2 254.8C2363.7 275.7 2409.3 333.3 2454.8 316.2C2500.3 299 2545.7 207 2591 198.5C2636.3 190 2681.7 265 2727.2 273.5C2772.7 282 2818.3 224 2863.8 210.3C2909.3 196.7 2954.7 227.3 2977.3 242.7L3000 258L3000 0L2977.3 0C2954.7 0 2909.3 0 2863.8 0C2818.3 0 2772.7 0 2727.2 0C2681.7 0 2636.3 0 2591 0C2545.7 0 2500.3 0 2454.8 0C2409.3 0 2363.7 0 2318.2 0C2272.7 0 2227.3 0 2181.8 0C2136.3 0 2090.7 0 2045.2 0C1999.7 0 1954.3 0 1909 0C1863.7 0 1818.3 0 1772.8 0C1727.3 0 1681.7 0 1636.2 0C1590.7 0 1545.3 0 1500 0C1454.7 0 1409.3 0 1363.8 0C1318.3 0 1272.7 0 1227.2 0C1181.7 0 1136.3 0 1091 0C1045.7 0 1000.3 0 954.8 0C909.3 0 863.7 0 818.2 0C772.7 0 727.3 0 681.8 0C636.3 0 590.7 0 545.2 0C499.7 0 454.3 0 409 0C363.7 0 318.3 0 272.8 0C227.3 0 181.7 0 136.2 0C90.7 0 45.3 0 22.7 0L0 0Z" fill="#FF6347" stroke-linecap="round" stroke-linejoin="miter"></path></svg>